<svg xmlns="http://www.w3.org/2000/svg" viewBox="0 0 32 32"><title>14-Film</title><g id="_14-Film" data-name="14-Film"><path d="M27,31H5a5.006,5.006,0,0,1-5-5V6A5.006,5.006,0,0,1,5,1H27a5.006,5.006,0,0,1,5,5V26A5.006,5.006,0,0,1,27,31ZM5,3A3,3,0,0,0,2,6V26a3,3,0,0,0,3,3H27a3,3,0,0,0,3-3V6a3,3,0,0,0-3-3Z"/><path d="M31,23H27a2.916,2.916,0,0,1-3-3V12a2.916,2.916,0,0,1,3-3h4a1,1,0,0,1,0,2H27a.915.915,0,0,0-1,1v8a.915.915,0,0,0,1,1h4a1,1,0,0,1,0,2Z"/><path d="M5,23H1a1,1,0,0,1,0-2H5a.915.915,0,0,0,1-1V12a.915.915,0,0,0-1-1H1A1,1,0,0,1,1,9H5a2.916,2.916,0,0,1,3,3v8A2.916,2.916,0,0,1,5,23Z"/><circle cx="26" cy="6" r="1"/><circle cx="6" cy="6" r="1"/><circle cx="11" cy="6" r="1"/><circle cx="16" cy="6" r="1"/><circle cx="21" cy="6" r="1"/><circle cx="26" cy="26" r="1"/><circle cx="6" cy="26" r="1"/><circle cx="11" cy="26" r="1"/><circle cx="16" cy="26" r="1"/><circle cx="21" cy="26" r="1"/><path d="M13,20a1,1,0,0,1-1-1V13a1,1,0,0,1,1.447-.895l6,3a1,1,0,0,1,0,1.79l-6,3A1,1,0,0,1,13,20Zm1-5.382v2.764L16.764,16Z"/></g></svg>