<svg id="Layer_1" data-name="Layer 1" xmlns="http://www.w3.org/2000/svg" viewBox="0 0 512 512"><defs><style>.cls-1{fill:#d61e1e;}.cls-2{fill:#f4eded;}.cls-3{fill:#5b5147;}</style></defs><title>no food or drinks</title><path class="cls-1" d="M256,7.92C119,7.92,7.92,119,7.92,256S119,504.08,256,504.08,504.08,393,504.08,256,393,7.92,256,7.92Z"/><path class="cls-2" d="M256,46.92C140.53,46.92,46.92,140.52,46.92,256S140.53,465.08,256,465.08,465.08,371.47,465.08,256,371.47,46.92,256,46.92Z"/><path class="cls-3" d="M282,312.88c-17.05-6.37-65.92-2.19-94.45-2.19-32.58,0-76.38-5.21-93,2.78,0,0-1.19,15.77,0,21.54,4.65,22.34,41.62,34.26,93,34.26s86.45-12.41,93-33.77C282.62,328.68,282,312.88,282,312.88Z"/><ellipse class="cls-3" cx="185.54" cy="313.47" rx="90.96" ry="26.83"/><ellipse class="cls-3" cx="191.28" cy="312.88" rx="90.73" ry="28.59"/><path class="cls-2" d="M189.18,288.5c-30.08,0-70.52-2.19-85.85,4.72v20.6c0,14,38.44,25.32,85.85,25.32S275,327.82,275,313.83V292.58C259.28,287.07,215.52,288.5,189.18,288.5Z"/><path class="cls-3" d="M189.18,272.08c-30.08,0-70.52-2.19-85.85,4.72v33.33c0,14,38.44,25.32,85.85,25.32S275,324.12,275,310.13v-34C259.28,270.64,215.52,272.08,189.18,272.08Z"/><ellipse class="cls-3" cx="189.18" cy="277.33" rx="85.85" ry="25.32"/><ellipse class="cls-2" cx="189.18" cy="280.66" rx="85.85" ry="25.32"/><path class="cls-2" d="M187.89,220c-51.54,0-93.32,26.35-93.32,55.6s41.79,25.48,93.32,25.48,93.33,3.76,93.33-25.48S239.44,220,187.89,220Z"/><path class="cls-3" d="M187.89,217.09c-51.54,0-93.32,26.35-93.32,55.6s41.79,25.48,93.32,25.48,93.33,3.76,93.33-25.48S239.44,217.09,187.89,217.09Z"/><ellipse class="cls-2" cx="212.88" cy="232.97" rx="3.47" ry="3.97"/><ellipse class="cls-2" cx="181.6" cy="250.84" rx="3.47" ry="3.97"/><ellipse class="cls-2" cx="146.85" cy="270.7" rx="3.47" ry="3.97"/><ellipse class="cls-2" cx="197.98" cy="275.66" rx="3.47" ry="3.97"/><path class="cls-2" d="M231.74,254.81a4,4,0,1,0,3.47,4A3.75,3.75,0,0,0,231.74,254.81Z"/><ellipse class="cls-2" cx="252.1" cy="281.62" rx="3.48" ry="3.97"/><ellipse class="cls-2" cx="260.53" cy="244.89" rx="3.47" ry="3.97"/><ellipse class="cls-2" cx="163.73" cy="229" rx="3.47" ry="3.97"/><ellipse class="cls-2" cx="106.65" cy="266.73" rx="3.47" ry="3.97"/><ellipse class="cls-2" cx="132.95" cy="247.87" rx="3.47" ry="3.97"/><path class="cls-3" d="M385,180.25H309.76c-6.39,0-11.58-1.27-11.58,3.91L311,349.74c.17,6.51,72.28,7.55,72.71,0l12.85-165.58C396.59,179,391.41,180.25,385,180.25Z"/><ellipse class="cls-3" cx="346.98" cy="182.74" rx="52.96" ry="5.04"/><path class="cls-2" d="M347,179.22c-23.65,0-45.75-.34-52.56,1.7,0,0-.41,6.17-.41,6.7,0,2.78,23.71,5,53,5s53-2.26,53-5v-6.84C394.43,178.56,372,179.22,347,179.22Z"/><path class="cls-3" d="M347,177.7c-23.65,0-45.75-.34-52.56,1.7,0,0-.41,6.17-.41,6.7,0,2.78,23.71,5,53,5s53-2.26,53-5v-6.84C394.43,177,372,177.7,347,177.7Z"/><ellipse class="cls-3" cx="346.98" cy="179.27" rx="52.96" ry="5.04"/><ellipse class="cls-3" cx="346.98" cy="179.27" rx="10.08" ry="1.17"/><path class="cls-3" d="M399.83,145.36l-10.55-4.71-29.59-13-2.23-1-.72-.24a15.64,15.64,0,0,0-4.31-.6c-8.07,0-14.61,6.07-14.61,13.56a12.62,12.62,0,0,0,.6,3.84L344,180.34s1.93.14,3.66.13,3.53-.11,3.53-.11L347,152l-1.34-8.72c-1.46-9.92,8.29-9.67,13.18-8.16l8.14,3.5,19.35,8.59,0-.06,10.56,4.71a3.58,3.58,0,0,0,2.89-6.5Z"/><path class="cls-3" d="M357.34,127.17a.57.57,0,0,0-1,.48c.07.14,1.56,3.48-.79,5.66a.57.57,0,0,0,.39,1,.55.55,0,0,0,.39-.15C359.26,131.4,357.42,127.34,357.34,127.17Z"/><path class="cls-3" d="M354.37,126.68a.58.58,0,0,0-1,.63c.08.13,2.06,3.22.05,5.71a.58.58,0,0,0,.9.72C356.89,130.59,354.47,126.84,354.37,126.68Z"/><path class="cls-3" d="M351,126.74a.57.57,0,1,0-.85.77s2.53,2.85.92,5.64a.58.58,0,1,0,1,.58C354.13,130.22,351.17,126.88,351,126.74Z"/><path class="cls-3" d="M347.15,127.51a.57.57,0,0,0-.68.92s3.05,2.29,2,5.34a.57.57,0,0,0,.36.73l.18,0a.58.58,0,0,0,.55-.39C350.88,130.31,347.31,127.63,347.15,127.51Z"/><path class="cls-3" d="M344.25,129.3a.57.57,0,0,0-.69.92s2.78,2.1,2.79,5.17a.58.58,0,0,0,.58.58h0a.57.57,0,0,0,.57-.58C347.48,131.75,344.38,129.4,344.25,129.3Z"/><path class="cls-3" d="M346.12,137a8.5,8.5,0,0,0-4.86-4.88.58.58,0,1,0-.39,1.08A7.46,7.46,0,0,1,345,137.3a.58.58,0,0,0,.55.4l.18,0A.57.57,0,0,0,346.12,137Z"/><path class="cls-3" d="M345.2,138.73a10.79,10.79,0,0,0-5.58-4,.57.57,0,1,0-.31,1.11,9.73,9.73,0,0,1,4.93,3.49.58.58,0,0,0,.48.26.57.57,0,0,0,.31-.1A.58.58,0,0,0,345.2,138.73Z"/><path class="cls-3" d="M345.07,140.61a10.74,10.74,0,0,0-6.33-2.4.54.54,0,0,0-.59.56.57.57,0,0,0,.57.59,9.75,9.75,0,0,1,5.58,2.11.56.56,0,0,0,.38.15.59.59,0,0,0,.43-.19A.58.58,0,0,0,345.07,140.61Z"/><path class="cls-1" d="M93.77,68.31A249.58,249.58,0,0,0,68.31,93.77L418.23,443.68a249.62,249.62,0,0,0,25.46-25.46Z"/></svg>